<?xml version="1.0" encoding="UTF-8" standalone="no"?>
<svg
   data-v-b559ba66=""
   id="avatarSvg"
   width="76.867615"
   height="68.604095"
   viewbox="0 0 128 128"
   style="display:block"
   version="1.1"
   xmlns="http://www.w3.org/2000/svg"
   xmlns:svg="http://www.w3.org/2000/svg">
  <!---->
  <g
     data-v-25ee1d09=""
     data-v-b559ba66=""
     clip-path="url(#eyes-clip-path)"
     class="svg-wrapper"
     id="g1"
     transform="translate(-25.566342,-24.5249)">
    <path
       fill-rule="evenodd"
       clip-rule="evenodd"
       d="m 35.7061,24.5249 -2.2988,21.6003 0.009,-0.0027 c -4.7307,8.7132 -7.069,17.3058 -7.6824,25.8115 l 12.443,2.5151 -12.5945,0.7178 c -0.0414,1.8804 -0.0021,3.7566 0.1104,5.6292 l 11.7359,-0.8116 -11.3823,3.4936 c 5.8384,4.2867 12.3632,7.5503 19.2959,9.6509 1.5748,-2.118 2.9682,-4.3649 4.1656,-6.717 -2.2742,-0.8494 -4.4693,-1.8973 -6.5597,-3.1317 0.5501,-0.3991 1.0882,-0.8102 1.6082,-1.2092 6.0827,2.8606 12.7217,4.3437 19.4435,4.3437 6.7218,0 13.3607,-1.4831 19.4435,-4.3437 0.526,0.4293 1.064,0.8404 1.6082,1.2092 -2.0945,1.2364 -4.2936,2.2863 -6.5719,3.1378 1.1959,2.3509 2.5895,4.596 4.1656,6.7109 6.9411,-2.0929 13.473,-5.3564 19.3137,-9.6492 l -11.3877,-3.4953 11.7377,0.8117 c 0.114,-1.9058 0.15,-3.7819 0.108,-5.6293 L 89.8232,74.4491 102.263,71.9347 C 101.586,62.6312 98.9185,54.0694 94.5911,46.1248 l 0.0016,4e-4 -2.2988,-21.6003 -18.2188,12.4889 c 1.5406,0.3836 3.0823,0.8792 4.6046,1.5061 2.2743,0.8494 4.4693,1.8974 6.5598,3.1318 -0.5502,0.399 -1.0883,0.8101 -1.6082,1.2091 -6.0827,-2.8605 -12.7217,-4.3437 -19.4435,-4.3437 -6.7218,0 -13.3608,1.4832 -19.4435,4.3437 -0.526,-0.4292 -1.0641,-0.8403 -1.6082,-1.2091 2.0945,-1.2364 4.2936,-2.2864 6.5718,-3.1378 1.1051,-0.4478 2.6094,-0.9362 4.4094,-1.3682 z"
       fill="#FFF"
       id="path1" />
  </g>
  <defs
     data-v-25ee1d09=""
     data-v-b559ba66=""
     class="svg-wrapper"
     id="defs2">
    <clipPath
       data-v-25ee1d09=""
       id="eyes-clip-path">
      <path
         fill-rule="evenodd"
         clip-rule="evenodd"
         d="M 128,0 H 0 V 128 H 128 Z M 51.0428,74.677 c -3.8483,0 -7.0277,-3.4923 -7.0277,-7.7887 0,-4.2964 3.0689,-7.8194 7.0154,-7.8194 3.9466,0 7.1013,3.523 7.0338,7.8194 -0.0675,4.2964 -3.0995,7.7887 -7.0215,7.7887 z m 25.9256,0 c -3.8545,0 -7.0215,-3.4923 -7.0215,-7.7887 0,-4.2964 3.0688,-7.8194 7.0215,-7.8194 3.9527,0 7.0829,3.523 7.0154,7.8194 -0.0675,4.2964 -3.0934,7.7887 -7.0154,7.7887 z"
         fill="#5964f2"
         id="path2" />
    </clipPath>
  </defs>
</svg>
